<svg width="200" height="200" viewBox="0 0 24 24" fill="none" xmlns="http://www.w3.org/2000/svg">
  <path fill-rule="evenodd" clip-rule="evenodd" d="M12 2C6.477 2 2 6.48 2 12a10 10 0 006.839 9.507c.5.092.682-.218.682-.485 0-.24-.01-1.025-.014-1.86-2.782.605-3.37-1.338-3.37-1.338-.454-1.16-1.11-1.47-1.11-1.47-.908-.622.07-.61.07-.61 1.004.07 1.533 1.035 1.533 1.035.89 1.527 2.34 1.086 2.91.83.09-.646.35-1.086.636-1.337-2.221-.253-4.555-1.112-4.555-4.95 0-1.094.39-1.988 1.029-2.685-.104-.253-.446-1.27.097-2.645 0 0 .84-.27 2.75 1.025a9.6 9.6 0 015 0c1.91-1.295 2.75-1.025 2.75-1.025.543 1.375.2 2.392.097 2.645.64.697 1.028 1.59 1.028 2.685 0 3.847-2.337 4.695-4.565 4.94.36.31.68.918.68 1.85 0 1.335-.014 2.415-.014 2.74 0 .27.18.58.688.483A10.002 10.002 0 0022 12c0-5.52-4.477-10-10-10z" fill="black"/>
</svg>
